<svg width="53" height="43" viewBox="0 0 53 43" fill="none" xmlns="http://www.w3.org/2000/svg">
<g clip-path="url(#clip0)">
<path d="M22.935 38.6203C25.8259 39.5076 28.6011 39.5076 31.3379 38.5431C32.0702 38.273 32.9953 37.6557 33.4579 38.8132C33.959 40.0478 33.2266 40.7808 32.1473 41.2052C28.3699 42.6327 24.4768 42.6327 20.8535 41.1666C9.71387 36.6526 2.39023 28.5892 0.270232 16.6676C-1.07886 9.06708 2.92987 0.965035 12.2579 0.077668C15.0331 -0.1924 17.7313 0.424899 20.3139 1.42801C20.8535 1.6595 21.2775 2.04531 21.5088 2.62403C21.74 3.20274 21.663 3.78146 21.316 4.28302C20.892 4.82315 20.391 4.5145 19.9284 4.3216C17.4615 3.35707 14.956 2.62403 12.2579 2.89409C3.00696 3.8972 0.925505 14.6999 4.70296 20.217C7.97932 24.9239 12.5662 26.853 18.1168 26.6601C23.1662 26.4672 27.5219 24.3452 31.6077 21.5674C32.4942 20.9501 33.3808 20.2942 34.3059 19.7155C34.807 19.3683 35.3851 18.8281 36.0019 19.5226C36.58 20.1785 36.6571 20.9501 36.156 21.6445C35.8862 22.0689 35.4622 22.4162 35.0768 22.7248C29.9888 26.39 24.5924 29.2065 18.1939 29.5923C14.956 29.7852 11.8339 29.0521 8.82732 27.7789C11.1015 30.171 13.9924 31.3284 17.2302 31.4827C23.0506 31.7914 28.1771 29.5923 33.0724 26.8144C35.4237 25.5027 37.6593 23.9594 39.7408 22.2618C40.2804 21.8374 40.8586 20.8729 41.6295 21.7989C42.4004 22.7248 42.2848 23.6893 41.3211 24.4995C38.9313 26.5444 36.3102 28.2805 33.535 29.7852C28.2928 32.6402 22.8193 34.5692 16.7291 34.5307C20.6222 36.3054 24.4768 35.8424 28.2928 34.5692C31.8775 33.3732 34.9611 31.3284 38.0448 29.2065C38.6615 28.7821 39.3553 27.5475 40.2804 28.6663C41.1284 29.6694 40.743 30.7111 39.7022 31.4827C35.0382 34.9165 30.1044 37.7329 24.2455 38.4274C23.783 38.3888 23.359 38.5045 22.935 38.6203Z" fill="#40463A"/>
<path d="M48.6829 9.33664C47.2952 7.33042 45.7149 6.71312 43.8647 6.55879C39.432 6.21156 35.5774 7.90914 31.7229 9.76103C25.7483 12.6932 20.5447 16.8214 15.1483 20.6409C14.5701 21.0653 14.0305 21.4897 13.4138 21.8369C12.8741 22.1456 12.296 22.9558 11.6021 22.0684C11.101 21.4125 11.101 20.6023 11.6021 19.9079C11.7949 19.6378 12.0261 19.4063 12.296 19.2134C17.885 15.3167 23.2429 11.0728 29.256 7.87055C33.1876 5.78717 37.2734 4.20534 42.1687 3.54946C38.4683 2.50777 35.3461 3.2794 32.3396 4.32109C28.0996 5.78717 24.3607 8.1792 20.776 10.7641C18.656 12.3074 16.4974 13.8506 14.3389 15.3553C13.7992 15.7411 13.1825 16.4356 12.4887 15.6639C11.8334 14.9309 11.9876 14.1207 12.6043 13.3877C12.7585 13.1948 12.9512 13.0018 13.1825 12.8475C18.3476 9.25948 23.3585 5.16987 29.3716 2.6621C32.9949 1.15743 36.6952 0.11574 40.781 0.540133C49.0683 1.38892 53.7323 9.72245 52.9229 16.6285C52.3061 21.6054 50.2247 25.9651 47.141 29.9004C46.7941 30.3634 46.4472 31.2122 45.6763 30.7878C44.944 30.402 44.6741 29.5532 44.944 28.743C45.1367 28.0871 45.5607 27.4698 45.9076 26.8911C47.8734 23.8432 49.5309 20.6795 50.0705 17.0143C50.4945 14.1207 48.7214 11.8058 45.792 11.4972C42.0145 11.1114 38.5454 12.1916 35.1534 13.6963C29.4487 16.2041 24.669 20.0622 19.581 23.3802C18.8872 23.8432 18.1163 25.1549 17.1912 23.9589C16.3047 22.84 17.037 21.8755 18.0007 21.2196C23.6669 17.3229 29.1018 13.079 35.616 10.5712C39.7018 8.98941 43.8261 8.10204 48.6829 9.33664Z" fill="#A4C686"/>
<path d="M37.1579 38.7741C36.5411 38.8127 36.2713 38.3497 36.0015 37.8867C35.6546 37.2694 35.6161 36.575 36.1942 36.1506C37.5819 35.1089 39.0466 34.1829 40.4728 33.2184C40.8197 32.9869 41.2051 32.9869 41.5135 33.3727C41.9375 33.9514 42.2073 34.6073 41.9375 35.3404C41.7062 35.9577 37.8131 38.7741 37.1579 38.7741Z" fill="#F1B95C"/>
<path d="M17.461 6.5588C17.4996 7.40758 17.1527 7.83197 16.6901 8.21779C15.6879 8.98941 14.6472 9.76103 13.5679 10.4941C13.0669 10.8413 12.4887 11.42 11.9105 10.687C11.3708 10.0697 11.1396 9.25948 11.6792 8.56502C12.797 7.09893 14.3389 6.1344 15.9192 5.36278C17.037 4.74548 17.1141 6.05724 17.461 6.5588Z" fill="#F1B95C"/>
</g>
<defs>
<clipPath id="clip0">
<rect width="53" height="42.2464" fill="white"/>
</clipPath>
</defs>
</svg>
